<?xml version="1.0" encoding="utf-8"?>
<!-- Generator: Adobe Illustrator 27.0.0, SVG Export Plug-In . SVG Version: 6.00 Build 0)  -->
<svg version="1.1" xmlns="http://www.w3.org/2000/svg" xmlns:xlink="http://www.w3.org/1999/xlink" x="0px" y="0px"
	 viewBox="0 0 512 512" style="enable-background:new 0 0 512 512;" xml:space="preserve">
<style type="text/css">
	.st0{fill:#002D72;stroke:#428ACB;stroke-miterlimit:10;}
	.st1{fill:#FFB81C;}
	.st2{fill:#E5E55C;}
</style>
<g id="Layer_3">
	<path class="st0" d="M256.1,36.9c-7.3-0.2-23.3,1.6-95.3,100.6c-62.6,86-73.3,116.1-78.4,132.4c-11.1,35.9-20,65-10.6,98.5
		c22.8,80.8,129.7,105.6,140.8,108c8.8,1.9,114.8,23.2,185.3-46.6c9.2-9.1,44.9-44.4,47.6-96.4c1.6-30.7-9-52.6-27.5-91.1
		c-11.1-22.9-23.7-44.2-70.9-106.9C276,40.9,265.5,37.1,256.1,36.9z"/>
</g>
<g id="Layer_2">
	<path d="M544.1,36.9"/>
</g>
<g id="Layer_1">
	<g>
		<g>
			<path class="st1" d="M360.7,135c-47.2-61.7-95.1-111.3-95.6-111.8c-2.2-2.3-5.5-3.6-9.1-3.6c-3.5,0-6.9,1.3-9.1,3.6
				c-0.5,0.5-48.4,50.1-95.6,111.8c-64.1,83.7-96.6,148.8-96.6,193.6c0,90.3,90.3,163.8,201.3,163.8c111,0,201.2-73.5,201.2-163.8
				C457.3,283.9,424.8,218.7,360.7,135z M256,473.5c-98.2,0-178.1-65-178.1-144.9c0-86.3,140.6-243.6,178.1-284
				c37.5,40.4,178.1,197.7,178.1,284C434.1,408.5,354.2,473.5,256,473.5z"/>
		</g>
	</g>
	<g>
		<g>
			<path class="st1" d="M348.2,221c-16.1,5.6,11.6,64.3-18,130.6c-33.5,75.1-112,96.1-108,104.4c5.8,12.1,178.9-11.5,197.2-106
				C431.9,285.5,367.1,214.4,348.2,221z"/>
		</g>
	</g>
	<path d="M439.3,264.9"/>
	<path d="M269.9,154.8"/>
	<path d="M308,226.1"/>
	<path d="M617.9,165.4"/>
	<path d="M628.5,127.3"/>
	<path class="st2" d="M401.2,339.8"/>
</g>
</svg>
